<svg width="24" height="24" viewBox="0 0 24 24" fill="none" xmlns="http://www.w3.org/2000/svg">
<path d="M16.036 1.05469C15.7688 1.18125 15.6 1.30781 15.3 1.60781C14.8594 2.05312 14.5969 2.5125 14.4563 3.1125L14.3766 3.45937L14.0625 3.4875C12.1219 3.67969 10.9547 5.325 10.5891 8.36719C10.4907 9.20156 10.4766 9.225 9.42659 10.2656C8.88284 10.8094 8.41409 11.3156 8.27816 11.5125L8.05316 11.8453L7.64534 11.7141C7.42034 11.6437 7.08753 11.5594 6.90941 11.5312C6.31878 11.4328 6.36097 11.4562 6.39847 11.2594C6.50159 10.6687 6.97503 10.0828 7.57034 9.79687C7.97347 9.60469 8.06253 9.50156 8.06253 9.22969C8.06253 9.13594 8.01566 9.04219 7.92659 8.94844C7.75316 8.775 7.57503 8.775 7.19534 8.93437C6.75472 9.12187 6.76409 9.12187 6.73128 8.93906C6.67503 8.65312 6.37503 8.11406 6.10316 7.81875C5.56409 7.2375 4.87972 6.93281 4.10159 6.93281C3.14066 6.92812 2.95316 7.11094 2.95316 8.03906C2.95316 8.84531 3.19691 9.44062 3.74534 9.98437C4.20941 10.4437 4.86097 10.7812 5.29222 10.7812C5.50316 10.7812 5.52659 10.8234 5.46566 11.1187C5.43753 11.2641 5.40003 11.3953 5.38128 11.4141C5.36722 11.4281 5.20784 11.4609 5.03441 11.4891C3.84378 11.6531 2.70003 12.2156 1.80941 13.0781C0.843782 14.0156 0.271907 15.1219 0.0703442 16.4531C-0.299968 18.8719 0.970344 21.3328 3.16878 22.4625C4.01722 22.8984 4.87972 23.1094 5.83597 23.1094C6.99847 23.1094 8.00159 22.8234 9.00472 22.2094L9.17347 22.1062L9.75472 22.3266C10.5188 22.6172 11.325 22.8422 12.0469 22.9688C12.7922 23.1 14.2266 23.1469 14.9485 23.0625C17.9391 22.7203 20.3485 21.1922 22.0782 18.5344C22.861 17.3344 23.625 15.4359 23.8313 14.1797C24.0188 13.0547 24.0422 11.4047 23.8875 10.5328C23.8219 10.1812 23.8078 10.1578 23.5172 9.84844C23.0532 9.35625 22.8469 8.925 22.6875 8.10469C22.6172 7.74844 22.4907 7.63125 22.1344 7.60312C21.6422 7.57031 21.0094 7.8 20.6578 8.14219C20.4703 8.32031 20.461 8.35312 20.3907 9.11719C20.3203 9.85781 20.2922 9.9375 20.0438 10.0687C19.8188 10.1906 19.8047 10.2187 19.5188 10.9922C19.425 11.25 19.2422 11.6672 19.1157 11.9203L18.886 12.3844L18.4875 11.7328C17.8735 10.7437 17.7703 10.5328 17.7 10.2C17.6391 9.92344 17.6438 9.82031 17.7235 9.24844C18.0469 6.87656 17.7282 5.31562 16.7203 4.35C16.4344 4.07812 15.8953 3.76406 15.5297 3.65156C15.3 3.58594 15.2953 3.55781 15.4032 3.18281C15.5813 2.57812 15.9844 2.11875 16.575 1.84687C16.9735 1.66406 17.0766 1.51875 17.0157 1.23281C16.9922 1.14375 16.9688 1.06406 16.9594 1.05937C16.6735 0.84375 16.4907 0.84375 16.036 1.05469ZM14.9766 4.47656C15.8766 4.6875 16.4485 5.23125 16.725 6.14062C16.9453 6.85781 16.9735 8.02031 16.8 9.04687C16.6032 10.2094 16.725 10.6687 17.5688 12.0328C17.775 12.3609 18.0235 12.7922 18.1172 12.9891L18.2953 13.3453L18.0282 13.7016C16.5563 15.6609 14.4469 17.1187 12.1219 17.7891C11.8969 17.8547 11.7047 17.9062 11.6953 17.9062C11.6907 17.9062 11.686 17.6062 11.686 17.2359C11.6813 16.0312 11.4 15.1078 10.7063 14.0391C10.4063 13.5703 9.67503 12.8109 9.24847 12.525C9.08909 12.4172 8.94847 12.3094 8.93441 12.2859C8.88284 12.2062 9.34222 11.6484 9.86253 11.1562C10.8047 10.2703 11.0063 10.0359 11.2078 9.63281C11.4 9.24844 11.4 9.24844 11.6203 7.82812C11.7469 7.04062 11.9063 6.49687 12.1969 5.91094C12.5766 5.1375 13.1391 4.63125 13.8047 4.47187C14.1328 4.39219 14.611 4.39219 14.9766 4.47656ZM4.84691 8.03437C5.46097 8.31562 5.90159 9.00937 5.90628 9.68906C5.90628 9.88594 5.90159 9.89062 5.74222 9.89062C4.77191 9.89062 3.96097 9.15469 3.90003 8.22187C3.88128 7.92187 3.88597 7.88437 3.96566 7.86562C4.13441 7.83281 4.61253 7.92187 4.84691 8.03437ZM21.9094 8.86875C22.0453 9.37031 22.3688 9.97969 22.6828 10.3172L22.9641 10.6266L23.0157 11.1375C23.1047 12.1078 23.0391 13.4344 22.8516 14.2922C22.5375 15.7641 21.6938 17.5875 20.7938 18.75C19.5563 20.3484 17.9625 21.4219 16.1297 21.8953C13.4907 22.575 10.5282 22.0031 7.78128 20.2828C7.29378 19.9734 6.37503 19.3125 6.37503 19.2609C6.37503 19.2469 6.46409 19.1297 6.57191 19.0078C6.79222 18.7547 6.68909 18.7641 7.64066 18.9375C8.32503 19.0687 9.94222 19.1156 10.6266 19.0359C13.2047 18.7219 15.4641 17.6484 17.386 15.8203C18.7407 14.5312 19.8094 12.9141 20.4563 11.1797C20.55 10.9266 20.6157 10.8281 20.7235 10.7625C21.0703 10.5609 21.2391 10.1297 21.3235 9.2625C21.3516 8.98125 21.3797 8.74687 21.3844 8.74219C21.3938 8.7375 21.4641 8.69531 21.5391 8.65781C21.7828 8.52656 21.8203 8.55 21.9094 8.86875ZM7.11566 12.5344C8.52191 12.9234 9.60003 13.8141 10.2422 15.1172C10.5422 15.7266 10.6688 16.1578 10.7297 16.8281C10.7719 17.2641 10.7438 18.0047 10.6875 18.0656C10.6735 18.075 10.4672 18.0984 10.2235 18.1219L9.78284 18.1547L9.81566 18.0422C9.88128 17.8031 9.90003 17.0719 9.84847 16.7484C9.76409 16.2141 9.58128 15.675 9.43597 15.5672C9.26253 15.4266 8.99534 15.4359 8.84534 15.5859C8.67191 15.7641 8.66253 15.8859 8.78909 16.3172C8.85472 16.5328 8.92034 16.8562 8.93441 17.0391C8.96253 17.3672 8.88753 18.0375 8.81722 18.1078C8.76566 18.1594 7.73909 18.0234 7.22816 17.9062C6.66097 17.7703 6.56253 17.7797 6.29534 17.9906C5.59691 18.5437 5.17972 19.3406 5.41409 19.6734C5.58753 19.9172 6.88128 20.8594 7.69691 21.3328L8.16566 21.6047L7.94066 21.7172C7.64534 21.8672 7.05003 22.05 6.62816 22.125C6.14534 22.2094 5.14222 22.1672 4.65472 22.0359C1.87503 21.3094 0.290657 18.3984 1.20472 15.7031C1.76722 14.0437 3.17816 12.8156 4.95003 12.4453C5.47034 12.3375 6.56722 12.3844 7.11566 12.5344Z" fill="#AAAAAA"/>
<path d="M14.8266 5.37634C14.6438 5.40915 14.4844 5.62009 14.4844 5.82165C14.4844 5.98102 14.5172 6.03727 14.7375 6.2529C14.9438 6.46384 15 6.54821 15.0469 6.75446C15.1313 7.16227 15.1547 7.77165 15.0984 8.24977C15.0656 8.49353 15.0328 8.84509 15.0141 9.03259C14.9859 9.36071 14.9906 9.37009 15.1313 9.51071C15.375 9.75915 15.7313 9.67946 15.8672 9.35602C15.9 9.27634 15.9656 8.9154 16.0078 8.55446C16.1344 7.53727 16.0547 6.6279 15.7922 6.07477C15.5906 5.63884 15.1453 5.3154 14.8266 5.37634Z" fill="#AAAAAA"/>
<path d="M17.6953 18.6609C17.3859 18.7499 17.2875 19.139 17.5125 19.4015C17.7656 19.7015 18.2813 19.514 18.2813 19.1156C18.2813 18.8718 18.2156 18.7546 18.0234 18.6749C17.9344 18.6374 17.8547 18.6093 17.85 18.614C17.8406 18.614 17.775 18.6374 17.6953 18.6609Z" fill="#AAAAAA"/>
<path d="M16.3594 19.4342C15.4688 19.8514 14.2875 20.1561 13.5422 20.1561C13.1625 20.1561 12.9328 20.5639 13.1438 20.878C13.2656 21.0655 13.4203 21.1076 13.8984 21.0748C15.0188 20.9905 16.8563 20.3951 17.0906 20.0389C17.2266 19.8326 17.2031 19.603 17.025 19.4483C16.8375 19.2795 16.6922 19.2748 16.3594 19.4342Z" fill="#AAAAAA"/>
<path d="M8.05786 14.4328C7.76255 14.7328 7.98286 15.2344 8.40942 15.2344C8.47505 15.2344 8.59692 15.1734 8.6813 15.0984C8.80786 14.9859 8.83599 14.9297 8.83599 14.7656C8.83599 14.6016 8.80786 14.5453 8.6813 14.4328C8.47505 14.2453 8.24536 14.2453 8.05786 14.4328Z" fill="#AAAAAA"/>
</svg>
